<svg width="355" height="245" viewBox="0 0 355 245" fill="none" xmlns="http://www.w3.org/2000/svg">
<rect x="42" y="24" width="311" height="221" rx="20" fill="#D9D9D9" fill-opacity="0.15"/>
<path d="M63.8295 5.45455C63.7784 5.02273 63.571 4.6875 63.2074 4.44886C62.8438 4.21023 62.3977 4.09091 61.8693 4.09091C61.483 4.09091 61.1449 4.15341 60.8551 4.27841C60.5682 4.40341 60.3438 4.57528 60.1818 4.79403C60.0227 5.01278 59.9432 5.26136 59.9432 5.53977C59.9432 5.77273 59.9986 5.97301 60.1094 6.14062C60.223 6.3054 60.3679 6.44318 60.544 6.55398C60.7202 6.66193 60.9048 6.75142 61.098 6.82244C61.2912 6.89062 61.4688 6.94602 61.6307 6.98864L62.517 7.22727C62.7443 7.28693 62.9972 7.36932 63.2756 7.47443C63.5568 7.57955 63.8253 7.72301 64.081 7.90483C64.3395 8.08381 64.5526 8.31392 64.7202 8.59517C64.8878 8.87642 64.9716 9.22159 64.9716 9.63068C64.9716 10.1023 64.848 10.5284 64.6009 10.9091C64.3565 11.2898 63.9986 11.5923 63.527 11.8168C63.0582 12.0412 62.4886 12.1534 61.8182 12.1534C61.1932 12.1534 60.652 12.0526 60.1946 11.8509C59.7401 11.6491 59.3821 11.3679 59.1207 11.0071C58.8622 10.6463 58.7159 10.2273 58.6818 9.75H59.7727C59.8011 10.0795 59.9119 10.3523 60.1051 10.5682C60.3011 10.7812 60.5483 10.9403 60.8466 11.0455C61.1477 11.1477 61.4716 11.1989 61.8182 11.1989C62.2216 11.1989 62.5838 11.1335 62.9048 11.0028C63.2259 10.8693 63.4801 10.6847 63.6676 10.4489C63.8551 10.2102 63.9489 9.93182 63.9489 9.61364C63.9489 9.32386 63.8679 9.08807 63.706 8.90625C63.544 8.72443 63.331 8.5767 63.0668 8.46307C62.8026 8.34943 62.517 8.25 62.2102 8.16477L61.1364 7.85795C60.4545 7.66193 59.9148 7.3821 59.517 7.01847C59.1193 6.65483 58.9205 6.17898 58.9205 5.59091C58.9205 5.10227 59.0526 4.67614 59.3168 4.3125C59.5838 3.94602 59.9418 3.66193 60.3906 3.46023C60.8423 3.25568 61.3466 3.15341 61.9034 3.15341C62.4659 3.15341 62.9659 3.25426 63.4034 3.45597C63.8409 3.65483 64.1875 3.92756 64.4432 4.27415C64.7017 4.62074 64.8381 5.0142 64.8523 5.45455H63.8295ZM70.3378 9.32386V5.45455H71.3435V12H70.3378V10.892H70.2696C70.1162 11.2244 69.8776 11.5071 69.5537 11.7401C69.2298 11.9702 68.8208 12.0852 68.3264 12.0852C67.9173 12.0852 67.5537 11.9957 67.2355 11.8168C66.9173 11.6349 66.6673 11.3622 66.4855 10.9986C66.3037 10.6321 66.2128 10.1705 66.2128 9.61364V5.45455H67.2185V9.54545C67.2185 10.0227 67.352 10.4034 67.619 10.6875C67.8889 10.9716 68.2327 11.1136 68.6503 11.1136C68.9003 11.1136 69.1546 11.0497 69.4131 10.9219C69.6744 10.794 69.8932 10.598 70.0693 10.3338C70.2483 10.0696 70.3378 9.73295 70.3378 9.32386ZM73.8311 8.0625V12H72.8255V5.45455H73.797V6.47727H73.8823C74.0357 6.14489 74.2686 5.87784 74.5811 5.67614C74.8936 5.47159 75.297 5.36932 75.7914 5.36932C76.2345 5.36932 76.6223 5.46023 76.9547 5.64205C77.2871 5.82102 77.5456 6.09375 77.7303 6.46023C77.9149 6.82386 78.0073 7.28409 78.0073 7.84091V12H77.0016V7.90909C77.0016 7.39489 76.8681 6.99432 76.601 6.70739C76.334 6.41761 75.9675 6.27273 75.5016 6.27273C75.1806 6.27273 74.8936 6.34233 74.6408 6.48153C74.3908 6.62074 74.1934 6.82386 74.0485 7.09091C73.9036 7.35795 73.8311 7.68182 73.8311 8.0625ZM100.726 3.27273H101.988L104.954 10.517H105.056L108.022 3.27273H109.283V12H108.295V5.36932H108.209L105.482 12H104.527L101.8 5.36932H101.715V12H100.726V3.27273ZM113.565 12.1364C112.974 12.1364 112.455 11.9957 112.009 11.7145C111.566 11.4332 111.22 11.0398 110.97 10.5341C110.723 10.0284 110.599 9.4375 110.599 8.76136C110.599 8.07955 110.723 7.48437 110.97 6.97585C111.22 6.46733 111.566 6.07244 112.009 5.79119C112.455 5.50994 112.974 5.36932 113.565 5.36932C114.156 5.36932 114.673 5.50994 115.116 5.79119C115.562 6.07244 115.909 6.46733 116.156 6.97585C116.406 7.48437 116.531 8.07955 116.531 8.76136C116.531 9.4375 116.406 10.0284 116.156 10.5341C115.909 11.0398 115.562 11.4332 115.116 11.7145C114.673 11.9957 114.156 12.1364 113.565 12.1364ZM113.565 11.233C114.014 11.233 114.383 11.1179 114.673 10.8878C114.963 10.6577 115.177 10.3551 115.316 9.98011C115.455 9.60511 115.525 9.19886 115.525 8.76136C115.525 8.32386 115.455 7.91619 115.316 7.53835C115.177 7.16051 114.963 6.85511 114.673 6.62216C114.383 6.3892 114.014 6.27273 113.565 6.27273C113.116 6.27273 112.747 6.3892 112.457 6.62216C112.167 6.85511 111.953 7.16051 111.813 7.53835C111.674 7.91619 111.605 8.32386 111.605 8.76136C111.605 9.19886 111.674 9.60511 111.813 9.98011C111.953 10.3551 112.167 10.6577 112.457 10.8878C112.747 11.1179 113.116 11.233 113.565 11.233ZM118.712 8.0625V12H117.706V5.45455H118.678V6.47727H118.763C118.916 6.14489 119.149 5.87784 119.462 5.67614C119.774 5.47159 120.178 5.36932 120.672 5.36932C121.115 5.36932 121.503 5.46023 121.835 5.64205C122.168 5.82102 122.426 6.09375 122.611 6.46023C122.795 6.82386 122.888 7.28409 122.888 7.84091V12H121.882V7.90909C121.882 7.39489 121.749 6.99432 121.481 6.70739C121.214 6.41761 120.848 6.27273 120.382 6.27273C120.061 6.27273 119.774 6.34233 119.521 6.48153C119.271 6.62074 119.074 6.82386 118.929 7.09091C118.784 7.35795 118.712 7.68182 118.712 8.0625ZM145.13 4.21023V3.27273H151.675V4.21023H148.931V12H147.874V4.21023H145.13ZM156.044 9.32386V5.45455H157.05V12H156.044V10.892H155.976C155.822 11.2244 155.584 11.5071 155.26 11.7401C154.936 11.9702 154.527 12.0852 154.033 12.0852C153.624 12.0852 153.26 11.9957 152.942 11.8168C152.624 11.6349 152.374 11.3622 152.192 10.9986C152.01 10.6321 151.919 10.1705 151.919 9.61364V5.45455H152.925V9.54545C152.925 10.0227 153.058 10.4034 153.325 10.6875C153.595 10.9716 153.939 11.1136 154.357 11.1136C154.607 11.1136 154.861 11.0497 155.119 10.9219C155.381 10.794 155.599 10.598 155.776 10.3338C155.955 10.0696 156.044 9.73295 156.044 9.32386ZM161.276 12.1364C160.645 12.1364 160.101 11.9972 159.644 11.7188C159.189 11.4375 158.839 11.0455 158.591 10.5426C158.347 10.0369 158.225 9.44886 158.225 8.77841C158.225 8.10795 158.347 7.51705 158.591 7.00568C158.839 6.49148 159.182 6.09091 159.623 5.80398C160.066 5.5142 160.583 5.36932 161.174 5.36932C161.515 5.36932 161.851 5.42614 162.184 5.53977C162.516 5.65341 162.819 5.83807 163.091 6.09375C163.364 6.34659 163.581 6.68182 163.743 7.09943C163.905 7.51705 163.986 8.03125 163.986 8.64205V9.06818H158.941V8.19886H162.964C162.964 7.82955 162.89 7.5 162.742 7.21023C162.597 6.92045 162.39 6.69176 162.12 6.52415C161.853 6.35653 161.537 6.27273 161.174 6.27273C160.773 6.27273 160.427 6.37216 160.134 6.57102C159.844 6.76705 159.621 7.02273 159.465 7.33807C159.309 7.65341 159.231 7.99148 159.231 8.35227V8.93182C159.231 9.42614 159.316 9.84517 159.486 10.1889C159.66 10.5298 159.9 10.7898 160.206 10.9688C160.513 11.1449 160.87 11.233 161.276 11.233C161.54 11.233 161.779 11.196 161.992 11.1222C162.208 11.0455 162.394 10.9318 162.55 10.7812C162.706 10.6278 162.827 10.4375 162.912 10.2102L163.884 10.483C163.782 10.8125 163.61 11.1023 163.368 11.3523C163.127 11.5994 162.829 11.7926 162.473 11.9318C162.118 12.0682 161.719 12.1364 161.276 12.1364ZM187.983 12L185.596 3.27273H186.67L188.494 10.3807H188.579L190.437 3.27273H191.63L193.488 10.3807H193.574L195.397 3.27273H196.471L194.085 12H192.994L191.068 5.04545H191L189.074 12H187.983ZM199.427 12.1364C198.796 12.1364 198.252 11.9972 197.795 11.7188C197.34 11.4375 196.989 11.0455 196.742 10.5426C196.498 10.0369 196.376 9.44886 196.376 8.77841C196.376 8.10795 196.498 7.51705 196.742 7.00568C196.989 6.49148 197.333 6.09091 197.773 5.80398C198.216 5.5142 198.733 5.36932 199.324 5.36932C199.665 5.36932 200.002 5.42614 200.334 5.53977C200.667 5.65341 200.969 5.83807 201.242 6.09375C201.515 6.34659 201.732 6.68182 201.894 7.09943C202.056 7.51705 202.137 8.03125 202.137 8.64205V9.06818H197.091V8.19886H201.114C201.114 7.82955 201.04 7.5 200.893 7.21023C200.748 6.92045 200.54 6.69176 200.27 6.52415C200.003 6.35653 199.688 6.27273 199.324 6.27273C198.924 6.27273 198.577 6.37216 198.285 6.57102C197.995 6.76705 197.772 7.02273 197.616 7.33807C197.459 7.65341 197.381 7.99148 197.381 8.35227V8.93182C197.381 9.42614 197.466 9.84517 197.637 10.1889C197.81 10.5298 198.05 10.7898 198.357 10.9688C198.664 11.1449 199.02 11.233 199.427 11.233C199.691 11.233 199.929 11.196 200.143 11.1222C200.358 11.0455 200.545 10.9318 200.701 10.7812C200.857 10.6278 200.978 10.4375 201.063 10.2102L202.035 10.483C201.932 10.8125 201.76 11.1023 201.519 11.3523C201.277 11.5994 200.979 11.7926 200.624 11.9318C200.269 12.0682 199.87 12.1364 199.427 12.1364ZM205.778 12.1364C205.233 12.1364 204.751 11.9986 204.334 11.723C203.916 11.4446 203.589 11.0526 203.354 10.5469C203.118 10.0384 203 9.4375 203 8.74432C203 8.05682 203.118 7.46023 203.354 6.95455C203.589 6.44886 203.917 6.05824 204.338 5.78267C204.758 5.5071 205.244 5.36932 205.795 5.36932C206.221 5.36932 206.558 5.44034 206.805 5.58239C207.055 5.72159 207.246 5.88068 207.376 6.05966C207.51 6.2358 207.614 6.38068 207.687 6.49432H207.773V3.27273H208.778V12H207.807V10.9943H207.687C207.614 11.1136 207.508 11.2642 207.372 11.446C207.236 11.625 207.041 11.7855 206.788 11.9276C206.535 12.0668 206.199 12.1364 205.778 12.1364ZM205.915 11.233C206.318 11.233 206.659 11.1278 206.937 10.9176C207.216 10.7045 207.427 10.4105 207.572 10.0355C207.717 9.65767 207.79 9.22159 207.79 8.72727C207.79 8.23864 207.719 7.81108 207.577 7.4446C207.435 7.07528 207.224 6.78835 206.946 6.58381C206.667 6.37642 206.324 6.27273 205.915 6.27273C205.489 6.27273 205.133 6.3821 204.849 6.60085C204.568 6.81676 204.356 7.1108 204.214 7.48295C204.075 7.85227 204.006 8.26705 204.006 8.72727C204.006 9.19318 204.077 9.61648 204.219 9.99716C204.364 10.375 204.577 10.6761 204.858 10.9006C205.142 11.1222 205.494 11.233 205.915 11.233ZM231.164 4.21023V3.27273H237.709V4.21023H234.965V12H233.908V4.21023H231.164ZM239.85 8.0625V12H238.844V3.27273H239.85V6.47727H239.935C240.088 6.1392 240.318 5.87074 240.625 5.67188C240.935 5.47017 241.347 5.36932 241.861 5.36932C242.307 5.36932 242.698 5.45881 243.033 5.63778C243.368 5.81392 243.628 6.08523 243.813 6.4517C244 6.81534 244.094 7.27841 244.094 7.84091V12H243.088V7.90909C243.088 7.3892 242.953 6.98722 242.684 6.70312C242.416 6.41619 242.046 6.27273 241.571 6.27273C241.242 6.27273 240.946 6.34233 240.685 6.48153C240.426 6.62074 240.222 6.82386 240.071 7.09091C239.924 7.35795 239.85 7.68182 239.85 8.0625ZM249.699 9.32386V5.45455H250.705V12H249.699V10.892H249.631C249.477 11.2244 249.239 11.5071 248.915 11.7401C248.591 11.9702 248.182 12.0852 247.688 12.0852C247.278 12.0852 246.915 11.9957 246.597 11.8168C246.278 11.6349 246.028 11.3622 245.847 10.9986C245.665 10.6321 245.574 10.1705 245.574 9.61364V5.45455H246.58V9.54545C246.58 10.0227 246.713 10.4034 246.98 10.6875C247.25 10.9716 247.594 11.1136 248.011 11.1136C248.261 11.1136 248.516 11.0497 248.774 10.9219C249.036 10.794 249.254 10.598 249.43 10.3338C249.609 10.0696 249.699 9.73295 249.699 9.32386ZM273.428 12V3.27273H278.661V4.21023H274.485V7.15909H278.269V8.09659H274.485V12H273.428ZM279.904 12V5.45455H280.876V6.44318H280.944C281.063 6.11932 281.279 5.85653 281.592 5.65483C281.904 5.45312 282.256 5.35227 282.649 5.35227C282.722 5.35227 282.815 5.35369 282.926 5.35653C283.036 5.35937 283.12 5.36364 283.177 5.36932V6.39205C283.143 6.38352 283.065 6.37074 282.943 6.35369C282.823 6.33381 282.697 6.32386 282.563 6.32386C282.245 6.32386 281.961 6.39062 281.711 6.52415C281.464 6.65483 281.268 6.83665 281.123 7.0696C280.981 7.29972 280.91 7.5625 280.91 7.85795V12H279.904ZM284.009 12V5.45455H285.015V12H284.009ZM284.52 4.36364C284.324 4.36364 284.155 4.29688 284.013 4.16335C283.874 4.02983 283.805 3.86932 283.805 3.68182C283.805 3.49432 283.874 3.33381 284.013 3.20028C284.155 3.06676 284.324 3 284.52 3C284.716 3 284.884 3.06676 285.023 3.20028C285.165 3.33381 285.236 3.49432 285.236 3.68182C285.236 3.86932 285.165 4.02983 285.023 4.16335C284.884 4.29688 284.716 4.36364 284.52 4.36364ZM312.511 5.45455C312.46 5.02273 312.252 4.6875 311.889 4.44886C311.525 4.21023 311.079 4.09091 310.551 4.09091C310.164 4.09091 309.826 4.15341 309.536 4.27841C309.249 4.40341 309.025 4.57528 308.863 4.79403C308.704 5.01278 308.624 5.26136 308.624 5.53977C308.624 5.77273 308.68 5.97301 308.791 6.14062C308.904 6.3054 309.049 6.44318 309.225 6.55398C309.401 6.66193 309.586 6.75142 309.779 6.82244C309.972 6.89062 310.15 6.94602 310.312 6.98864L311.198 7.22727C311.426 7.28693 311.678 7.36932 311.957 7.47443C312.238 7.57955 312.507 7.72301 312.762 7.90483C313.021 8.08381 313.234 8.31392 313.401 8.59517C313.569 8.87642 313.653 9.22159 313.653 9.63068C313.653 10.1023 313.529 10.5284 313.282 10.9091C313.038 11.2898 312.68 11.5923 312.208 11.8168C311.739 12.0412 311.17 12.1534 310.499 12.1534C309.874 12.1534 309.333 12.0526 308.876 11.8509C308.421 11.6491 308.063 11.3679 307.802 11.0071C307.543 10.6463 307.397 10.2273 307.363 9.75H308.454C308.482 10.0795 308.593 10.3523 308.786 10.5682C308.982 10.7812 309.23 10.9403 309.528 11.0455C309.829 11.1477 310.153 11.1989 310.499 11.1989C310.903 11.1989 311.265 11.1335 311.586 11.0028C311.907 10.8693 312.161 10.6847 312.349 10.4489C312.536 10.2102 312.63 9.93182 312.63 9.61364C312.63 9.32386 312.549 9.08807 312.387 8.90625C312.225 8.72443 312.012 8.5767 311.748 8.46307C311.484 8.34943 311.198 8.25 310.891 8.16477L309.818 7.85795C309.136 7.66193 308.596 7.3821 308.198 7.01847C307.801 6.65483 307.602 6.17898 307.602 5.59091C307.602 5.10227 307.734 4.67614 307.998 4.3125C308.265 3.94602 308.623 3.66193 309.072 3.46023C309.524 3.25568 310.028 3.15341 310.585 3.15341C311.147 3.15341 311.647 3.25426 312.085 3.45597C312.522 3.65483 312.869 3.92756 313.124 4.27415C313.383 4.62074 313.519 5.0142 313.534 5.45455H312.511ZM316.82 12.1534C316.405 12.1534 316.029 12.0753 315.691 11.919C315.353 11.7599 315.084 11.5312 314.886 11.233C314.687 10.9318 314.587 10.5682 314.587 10.142C314.587 9.76705 314.661 9.46307 314.809 9.23011C314.957 8.99432 315.154 8.80966 315.401 8.67614C315.648 8.54261 315.921 8.44318 316.219 8.37784C316.52 8.30966 316.823 8.25568 317.127 8.21591C317.525 8.16477 317.847 8.12642 318.094 8.10085C318.344 8.07244 318.526 8.02557 318.64 7.96023C318.756 7.89489 318.814 7.78125 318.814 7.61932V7.58523C318.814 7.16477 318.699 6.83807 318.469 6.60511C318.242 6.37216 317.897 6.25568 317.434 6.25568C316.954 6.25568 316.577 6.3608 316.305 6.57102C316.032 6.78125 315.84 7.00568 315.729 7.24432L314.775 6.90341C314.945 6.50568 315.172 6.19602 315.457 5.97443C315.743 5.75 316.056 5.59375 316.394 5.50568C316.735 5.41477 317.07 5.36932 317.4 5.36932C317.61 5.36932 317.851 5.39489 318.124 5.44602C318.4 5.49432 318.665 5.59517 318.921 5.74858C319.18 5.90199 319.394 6.13352 319.564 6.44318C319.735 6.75284 319.82 7.16761 319.82 7.6875V12H318.814V11.1136H318.763C318.695 11.2557 318.582 11.4077 318.422 11.5696C318.263 11.7315 318.052 11.8693 317.788 11.983C317.523 12.0966 317.201 12.1534 316.82 12.1534ZM316.974 11.25C317.371 11.25 317.707 11.1719 317.979 11.0156C318.255 10.8594 318.462 10.6577 318.601 10.4105C318.743 10.1634 318.814 9.90341 318.814 9.63068V8.71023C318.772 8.76136 318.678 8.80824 318.533 8.85085C318.391 8.89062 318.226 8.92614 318.039 8.95739C317.854 8.9858 317.674 9.01136 317.498 9.03409C317.324 9.05398 317.184 9.07102 317.076 9.08523C316.814 9.11932 316.57 9.17472 316.343 9.25142C316.118 9.32528 315.937 9.4375 315.797 9.58807C315.661 9.7358 315.593 9.9375 315.593 10.1932C315.593 10.5426 315.722 10.8068 315.981 10.9858C316.242 11.1619 316.573 11.25 316.974 11.25ZM324.142 5.45455V6.30682H320.75V5.45455H324.142ZM321.739 3.88636H322.745V10.125C322.745 10.4091 322.786 10.6222 322.868 10.7642C322.953 10.9034 323.061 10.9972 323.192 11.0455C323.326 11.0909 323.466 11.1136 323.614 11.1136C323.725 11.1136 323.816 11.108 323.887 11.0966C323.958 11.0824 324.015 11.071 324.057 11.0625L324.262 11.9659C324.193 11.9915 324.098 12.017 323.976 12.0426C323.854 12.071 323.699 12.0852 323.512 12.0852C323.228 12.0852 322.949 12.0241 322.676 11.902C322.407 11.7798 322.182 11.5938 322.003 11.3438C321.827 11.0938 321.739 10.7784 321.739 10.3977V3.88636Z" fill="#DCDCDC"/>
<path d="M44 137.4L62.2328 144.865C78.0912 151.358 86.0204 154.604 93.1654 152.12C93.6805 151.941 94.1881 151.741 94.6868 151.521C101.605 148.461 105.186 140.678 112.349 125.11V125.11C115.206 118.9 116.635 115.795 118.945 113.378C119.117 113.197 119.293 113.02 119.472 112.846C121.871 110.516 124.964 109.062 131.15 106.153L139.071 102.428C145.294 99.5022 148.406 98.0391 151.728 97.6776C152.459 97.598 153.194 97.5589 153.929 97.5602C157.271 97.5665 160.52 98.6905 167.019 100.938L179.144 105.132C182.19 106.186 184.589 108.572 185.658 111.613V111.613C188.865 120.725 201.607 121.115 205.365 112.216L206.311 109.975C207.186 107.904 208.647 106.134 210.516 104.884L215.671 101.437C218.727 99.3931 220.256 98.3711 221.912 97.6524C223.316 97.0434 224.785 96.5975 226.29 96.3234C228.067 96 229.905 96 233.582 96H233.994C241.325 96 244.99 96 248.25 97.1631C250.43 97.9409 252.458 99.0912 254.245 100.563C256.916 102.763 258.798 105.909 262.561 112.2V112.2L267.861 121.061C269.493 123.79 270.309 125.154 271.205 126.259C275.7 131.807 282.813 134.537 289.867 133.422C291.271 133.2 292.791 132.732 295.83 131.796V131.796C296.227 131.674 296.425 131.613 296.622 131.548C297.59 131.227 298.533 130.834 299.441 130.37C299.625 130.275 299.808 130.177 300.174 129.98L302.275 128.851C307.678 125.948 310.38 124.496 312.499 122.345C314.618 120.194 316.03 117.471 318.853 112.026L322.615 104.768C324.877 100.405 326.007 98.2243 327.612 96.3961C329.216 94.5679 331.232 93.1637 335.264 90.3552L353 78" stroke="#677ABD" stroke-width="3.5" stroke-linecap="round"/>
<circle cx="156.5" cy="97.5" r="4.5" fill="white"/>
<circle cx="156.5" cy="97.5" r="3" stroke="#3049E2" stroke-opacity="0.65" stroke-width="3"/>
<circle cx="197.5" cy="119.5" r="4.5" fill="white"/>
<circle cx="197.5" cy="119.5" r="3" stroke="#3049E2" stroke-opacity="0.65" stroke-width="3"/>
<circle cx="244.5" cy="97.5" r="4.5" fill="white"/>
<circle cx="244.5" cy="97.5" r="3" stroke="#3049E2" stroke-opacity="0.65" stroke-width="3"/>
<circle cx="57.5" cy="143.5" r="4.5" fill="white"/>
<circle cx="57.5" cy="143.5" r="3" stroke="#3049E2" stroke-opacity="0.65" stroke-width="3"/>
<circle cx="117.5" cy="115.5" r="4.5" fill="white"/>
<circle cx="117.5" cy="115.5" r="3" stroke="#3049E2" stroke-opacity="0.65" stroke-width="3"/>
<circle cx="272.5" cy="126.5" r="4.5" fill="white"/>
<circle cx="272.5" cy="126.5" r="3" stroke="#3049E2" stroke-opacity="0.65" stroke-width="3"/>
<circle cx="328.5" cy="97.5" r="4.5" fill="white"/>
<circle cx="328.5" cy="97.5" r="3" stroke="#3049E2" stroke-opacity="0.65" stroke-width="3"/>
<path d="M1.2706 53V52.233L4.15128 49.0795C4.48935 48.7102 4.76776 48.3892 4.98651 48.1165C5.20526 47.8409 5.36719 47.5824 5.4723 47.3409C5.58026 47.0966 5.63423 46.8409 5.63423 46.5739C5.63423 46.267 5.56037 46.0014 5.41264 45.777C5.26776 45.5526 5.06889 45.3793 4.81605 45.2571C4.56321 45.1349 4.27912 45.0739 3.96378 45.0739C3.62855 45.0739 3.33594 45.1435 3.08594 45.2827C2.83878 45.419 2.64702 45.6108 2.51065 45.858C2.37713 46.1051 2.31037 46.3949 2.31037 46.7273H1.30469C1.30469 46.2159 1.42259 45.767 1.65838 45.3807C1.89418 44.9943 2.2152 44.6932 2.62145 44.4773C3.03054 44.2614 3.48935 44.1534 3.99787 44.1534C4.50923 44.1534 4.96236 44.2614 5.35724 44.4773C5.75213 44.6932 6.06179 44.9844 6.28622 45.3509C6.51065 45.7173 6.62287 46.125 6.62287 46.5739C6.62287 46.8949 6.56463 47.2088 6.44815 47.5156C6.33452 47.8196 6.13565 48.1591 5.85156 48.5341C5.57031 48.9062 5.17969 49.3608 4.67969 49.8977L2.71946 51.9943V52.0625H6.77628V53H1.2706ZM11.3828 53.1193C10.7408 53.1193 10.1939 52.9446 9.74219 52.5952C9.29048 52.2429 8.94531 51.733 8.70668 51.0653C8.46804 50.3949 8.34872 49.5852 8.34872 48.6364C8.34872 47.6932 8.46804 46.8878 8.70668 46.2202C8.94815 45.5497 9.29474 45.0384 9.74645 44.6861C10.201 44.331 10.7464 44.1534 11.3828 44.1534C12.0192 44.1534 12.5632 44.331 13.0149 44.6861C13.4695 45.0384 13.8161 45.5497 14.0547 46.2202C14.2962 46.8878 14.4169 47.6932 14.4169 48.6364C14.4169 49.5852 14.2976 50.3949 14.0589 51.0653C13.8203 51.733 13.4751 52.2429 13.0234 52.5952C12.5717 52.9446 12.0249 53.1193 11.3828 53.1193ZM11.3828 52.1818C12.0192 52.1818 12.5135 51.875 12.8658 51.2614C13.218 50.6477 13.3942 49.7727 13.3942 48.6364C13.3942 47.8807 13.3132 47.2372 13.1513 46.706C12.9922 46.1747 12.7621 45.7699 12.4609 45.4915C12.1626 45.2131 11.8033 45.0739 11.3828 45.0739C10.7521 45.0739 10.2592 45.3849 9.90412 46.0071C9.54901 46.6264 9.37145 47.5028 9.37145 48.6364C9.37145 49.392 9.45099 50.0341 9.61009 50.5625C9.76918 51.0909 9.99787 51.4929 10.2962 51.7685C10.5973 52.044 10.9595 52.1818 11.3828 52.1818ZM18.8828 53.1193C18.2408 53.1193 17.6939 52.9446 17.2422 52.5952C16.7905 52.2429 16.4453 51.733 16.2067 51.0653C15.968 50.3949 15.8487 49.5852 15.8487 48.6364C15.8487 47.6932 15.968 46.8878 16.2067 46.2202C16.4482 45.5497 16.7947 45.0384 17.2464 44.6861C17.701 44.331 18.2464 44.1534 18.8828 44.1534C19.5192 44.1534 20.0632 44.331 20.5149 44.6861C20.9695 45.0384 21.3161 45.5497 21.5547 46.2202C21.7962 46.8878 21.9169 47.6932 21.9169 48.6364C21.9169 49.5852 21.7976 50.3949 21.5589 51.0653C21.3203 51.733 20.9751 52.2429 20.5234 52.5952C20.0717 52.9446 19.5249 53.1193 18.8828 53.1193ZM18.8828 52.1818C19.5192 52.1818 20.0135 51.875 20.3658 51.2614C20.718 50.6477 20.8942 49.7727 20.8942 48.6364C20.8942 47.8807 20.8132 47.2372 20.6513 46.706C20.4922 46.1747 20.2621 45.7699 19.9609 45.4915C19.6626 45.2131 19.3033 45.0739 18.8828 45.0739C18.2521 45.0739 17.7592 45.3849 17.4041 46.0071C17.049 46.6264 16.8714 47.5028 16.8714 48.6364C16.8714 49.392 16.951 50.0341 17.1101 50.5625C17.2692 51.0909 17.4979 51.4929 17.7962 51.7685C18.0973 52.044 18.4595 52.1818 18.8828 52.1818ZM26.3828 53.1193C25.7408 53.1193 25.1939 52.9446 24.7422 52.5952C24.2905 52.2429 23.9453 51.733 23.7067 51.0653C23.468 50.3949 23.3487 49.5852 23.3487 48.6364C23.3487 47.6932 23.468 46.8878 23.7067 46.2202C23.9482 45.5497 24.2947 45.0384 24.7464 44.6861C25.201 44.331 25.7464 44.1534 26.3828 44.1534C27.0192 44.1534 27.5632 44.331 28.0149 44.6861C28.4695 45.0384 28.8161 45.5497 29.0547 46.2202C29.2962 46.8878 29.4169 47.6932 29.4169 48.6364C29.4169 49.5852 29.2976 50.3949 29.0589 51.0653C28.8203 51.733 28.4751 52.2429 28.0234 52.5952C27.5717 52.9446 27.0249 53.1193 26.3828 53.1193ZM26.3828 52.1818C27.0192 52.1818 27.5135 51.875 27.8658 51.2614C28.218 50.6477 28.3942 49.7727 28.3942 48.6364C28.3942 47.8807 28.3132 47.2372 28.1513 46.706C27.9922 46.1747 27.7621 45.7699 27.4609 45.4915C27.1626 45.2131 26.8033 45.0739 26.3828 45.0739C25.7521 45.0739 25.2592 45.3849 24.9041 46.0071C24.549 46.6264 24.3714 47.5028 24.3714 48.6364C24.3714 49.392 24.451 50.0341 24.6101 50.5625C24.7692 51.0909 24.9979 51.4929 25.2962 51.7685C25.5973 52.044 25.9595 52.1818 26.3828 52.1818ZM33.8828 53.1193C33.2408 53.1193 32.6939 52.9446 32.2422 52.5952C31.7905 52.2429 31.4453 51.733 31.2067 51.0653C30.968 50.3949 30.8487 49.5852 30.8487 48.6364C30.8487 47.6932 30.968 46.8878 31.2067 46.2202C31.4482 45.5497 31.7947 45.0384 32.2464 44.6861C32.701 44.331 33.2464 44.1534 33.8828 44.1534C34.5192 44.1534 35.0632 44.331 35.5149 44.6861C35.9695 45.0384 36.3161 45.5497 36.5547 46.2202C36.7962 46.8878 36.9169 47.6932 36.9169 48.6364C36.9169 49.5852 36.7976 50.3949 36.5589 51.0653C36.3203 51.733 35.9751 52.2429 35.5234 52.5952C35.0717 52.9446 34.5249 53.1193 33.8828 53.1193ZM33.8828 52.1818C34.5192 52.1818 35.0135 51.875 35.3658 51.2614C35.718 50.6477 35.8942 49.7727 35.8942 48.6364C35.8942 47.8807 35.8132 47.2372 35.6513 46.706C35.4922 46.1747 35.2621 45.7699 34.9609 45.4915C34.6626 45.2131 34.3033 45.0739 33.8828 45.0739C33.2521 45.0739 32.7592 45.3849 32.4041 46.0071C32.049 46.6264 31.8714 47.5028 31.8714 48.6364C31.8714 49.392 31.951 50.0341 32.1101 50.5625C32.2692 51.0909 32.4979 51.4929 32.7962 51.7685C33.0973 52.044 33.4595 52.1818 33.8828 52.1818ZM5.28214 89.2727V98H4.22532V90.3807H4.17418L2.0435 91.7955V90.7216L4.22532 89.2727H5.28214ZM10.5194 98.1193C10.0194 98.1193 9.56907 98.0199 9.1685 97.821C8.76793 97.6222 8.44691 97.3494 8.20543 97.0028C7.96396 96.6562 7.83185 96.2614 7.80913 95.8182H8.83185C8.87163 96.2131 9.0506 96.5398 9.36879 96.7983C9.68981 97.054 10.0733 97.1818 10.5194 97.1818C10.8773 97.1818 11.1955 97.098 11.4739 96.9304C11.7551 96.7628 11.9753 96.5327 12.1344 96.2401C12.2963 95.9446 12.3773 95.6108 12.3773 95.2386C12.3773 94.858 12.2935 94.5185 12.1259 94.2202C11.9611 93.919 11.7338 93.6818 11.4441 93.5085C11.1543 93.3352 10.8233 93.2472 10.4512 93.2443C10.1841 93.2415 9.90998 93.2827 9.62873 93.3679C9.34748 93.4503 9.11594 93.5568 8.93413 93.6875L7.94549 93.5682L8.4739 89.2727H13.008V90.2102H9.36026L9.05344 92.7841H9.10458C9.28356 92.642 9.50799 92.5241 9.77788 92.4304C10.0478 92.3366 10.329 92.2898 10.6216 92.2898C11.1557 92.2898 11.6316 92.4176 12.0492 92.6733C12.4696 92.9261 12.7992 93.2727 13.0378 93.7131C13.2793 94.1534 13.4 94.6562 13.4 95.2216C13.4 95.7784 13.275 96.2756 13.025 96.7131C12.7779 97.1477 12.437 97.4915 12.0023 97.7443C11.5676 97.9943 11.0733 98.1193 10.5194 98.1193ZM17.9395 98.1193C17.2974 98.1193 16.7505 97.9446 16.2988 97.5952C15.8471 97.2429 15.502 96.733 15.2633 96.0653C15.0247 95.3949 14.9054 94.5852 14.9054 93.6364C14.9054 92.6932 15.0247 91.8878 15.2633 91.2202C15.5048 90.5497 15.8514 90.0384 16.3031 89.6861C16.7576 89.331 17.3031 89.1534 17.9395 89.1534C18.5758 89.1534 19.1199 89.331 19.5716 89.6861C20.0261 90.0384 20.3727 90.5497 20.6113 91.2202C20.8528 91.8878 20.9735 92.6932 20.9735 93.6364C20.9735 94.5852 20.8542 95.3949 20.6156 96.0653C20.377 96.733 20.0318 97.2429 19.5801 97.5952C19.1284 97.9446 18.5815 98.1193 17.9395 98.1193ZM17.9395 97.1818C18.5758 97.1818 19.0701 96.875 19.4224 96.2614C19.7747 95.6477 19.9508 94.7727 19.9508 93.6364C19.9508 92.8807 19.8699 92.2372 19.7079 91.706C19.5488 91.1747 19.3187 90.7699 19.0176 90.4915C18.7193 90.2131 18.3599 90.0739 17.9395 90.0739C17.3088 90.0739 16.8159 90.3849 16.4608 91.0071C16.1056 91.6264 15.9281 92.5028 15.9281 93.6364C15.9281 94.392 16.0076 95.0341 16.1667 95.5625C16.3258 96.0909 16.5545 96.4929 16.8528 96.7685C17.1539 97.044 17.5162 97.1818 17.9395 97.1818ZM25.4395 98.1193C24.7974 98.1193 24.2505 97.9446 23.7988 97.5952C23.3471 97.2429 23.002 96.733 22.7633 96.0653C22.5247 95.3949 22.4054 94.5852 22.4054 93.6364C22.4054 92.6932 22.5247 91.8878 22.7633 91.2202C23.0048 90.5497 23.3514 90.0384 23.8031 89.6861C24.2576 89.331 24.8031 89.1534 25.4395 89.1534C26.0758 89.1534 26.6199 89.331 27.0716 89.6861C27.5261 90.0384 27.8727 90.5497 28.1113 91.2202C28.3528 91.8878 28.4735 92.6932 28.4735 93.6364C28.4735 94.5852 28.3542 95.3949 28.1156 96.0653C27.877 96.733 27.5318 97.2429 27.0801 97.5952C26.6284 97.9446 26.0815 98.1193 25.4395 98.1193ZM25.4395 97.1818C26.0758 97.1818 26.5701 96.875 26.9224 96.2614C27.2747 95.6477 27.4508 94.7727 27.4508 93.6364C27.4508 92.8807 27.3699 92.2372 27.2079 91.706C27.0488 91.1747 26.8187 90.7699 26.5176 90.4915C26.2193 90.2131 25.8599 90.0739 25.4395 90.0739C24.8088 90.0739 24.3159 90.3849 23.9608 91.0071C23.6056 91.6264 23.4281 92.5028 23.4281 93.6364C23.4281 94.392 23.5076 95.0341 23.6667 95.5625C23.8258 96.0909 24.0545 96.4929 24.3528 96.7685C24.6539 97.044 25.0162 97.1818 25.4395 97.1818ZM32.9395 98.1193C32.2974 98.1193 31.7505 97.9446 31.2988 97.5952C30.8471 97.2429 30.502 96.733 30.2633 96.0653C30.0247 95.3949 29.9054 94.5852 29.9054 93.6364C29.9054 92.6932 30.0247 91.8878 30.2633 91.2202C30.5048 90.5497 30.8514 90.0384 31.3031 89.6861C31.7576 89.331 32.3031 89.1534 32.9395 89.1534C33.5758 89.1534 34.1199 89.331 34.5716 89.6861C35.0261 90.0384 35.3727 90.5497 35.6113 91.2202C35.8528 91.8878 35.9735 92.6932 35.9735 93.6364C35.9735 94.5852 35.8542 95.3949 35.6156 96.0653C35.377 96.733 35.0318 97.2429 34.5801 97.5952C34.1284 97.9446 33.5815 98.1193 32.9395 98.1193ZM32.9395 97.1818C33.5758 97.1818 34.0701 96.875 34.4224 96.2614C34.7747 95.6477 34.9508 94.7727 34.9508 93.6364C34.9508 92.8807 34.8699 92.2372 34.7079 91.706C34.5488 91.1747 34.3187 90.7699 34.0176 90.4915C33.7193 90.2131 33.3599 90.0739 32.9395 90.0739C32.3088 90.0739 31.8159 90.3849 31.4608 91.0071C31.1056 91.6264 30.9281 92.5028 30.9281 93.6364C30.9281 94.392 31.0076 95.0341 31.1667 95.5625C31.3258 96.0909 31.5545 96.4929 31.8528 96.7685C32.1539 97.044 32.5162 97.1818 32.9395 97.1818ZM5.18253 134.273V143H4.12571V135.381H4.07457L1.94389 136.795V135.722L4.12571 134.273H5.18253ZM10.5391 143.119C9.89702 143.119 9.35014 142.945 8.89844 142.595C8.44673 142.243 8.10156 141.733 7.86293 141.065C7.62429 140.395 7.50497 139.585 7.50497 138.636C7.50497 137.693 7.62429 136.888 7.86293 136.22C8.1044 135.55 8.45099 135.038 8.9027 134.686C9.35724 134.331 9.9027 134.153 10.5391 134.153C11.1754 134.153 11.7195 134.331 12.1712 134.686C12.6257 135.038 12.9723 135.55 13.2109 136.22C13.4524 136.888 13.5732 137.693 13.5732 138.636C13.5732 139.585 13.4538 140.395 13.2152 141.065C12.9766 141.733 12.6314 142.243 12.1797 142.595C11.728 142.945 11.1811 143.119 10.5391 143.119ZM10.5391 142.182C11.1754 142.182 11.6697 141.875 12.022 141.261C12.3743 140.648 12.5504 139.773 12.5504 138.636C12.5504 137.881 12.4695 137.237 12.3075 136.706C12.1484 136.175 11.9183 135.77 11.6172 135.491C11.3189 135.213 10.9595 135.074 10.5391 135.074C9.90838 135.074 9.41548 135.385 9.06037 136.007C8.70526 136.626 8.5277 137.503 8.5277 138.636C8.5277 139.392 8.60724 140.034 8.76634 140.562C8.92543 141.091 9.15412 141.493 9.45241 141.768C9.75355 142.044 10.1158 142.182 10.5391 142.182ZM18.0391 143.119C17.397 143.119 16.8501 142.945 16.3984 142.595C15.9467 142.243 15.6016 141.733 15.3629 141.065C15.1243 140.395 15.005 139.585 15.005 138.636C15.005 137.693 15.1243 136.888 15.3629 136.22C15.6044 135.55 15.951 135.038 16.4027 134.686C16.8572 134.331 17.4027 134.153 18.0391 134.153C18.6754 134.153 19.2195 134.331 19.6712 134.686C20.1257 135.038 20.4723 135.55 20.7109 136.22C20.9524 136.888 21.0732 137.693 21.0732 138.636C21.0732 139.585 20.9538 140.395 20.7152 141.065C20.4766 141.733 20.1314 142.243 19.6797 142.595C19.228 142.945 18.6811 143.119 18.0391 143.119ZM18.0391 142.182C18.6754 142.182 19.1697 141.875 19.522 141.261C19.8743 140.648 20.0504 139.773 20.0504 138.636C20.0504 137.881 19.9695 137.237 19.8075 136.706C19.6484 136.175 19.4183 135.77 19.1172 135.491C18.8189 135.213 18.4595 135.074 18.0391 135.074C17.4084 135.074 16.9155 135.385 16.5604 136.007C16.2053 136.626 16.0277 137.503 16.0277 138.636C16.0277 139.392 16.1072 140.034 16.2663 140.562C16.4254 141.091 16.6541 141.493 16.9524 141.768C17.2536 142.044 17.6158 142.182 18.0391 142.182ZM25.5391 143.119C24.897 143.119 24.3501 142.945 23.8984 142.595C23.4467 142.243 23.1016 141.733 22.8629 141.065C22.6243 140.395 22.505 139.585 22.505 138.636C22.505 137.693 22.6243 136.888 22.8629 136.22C23.1044 135.55 23.451 135.038 23.9027 134.686C24.3572 134.331 24.9027 134.153 25.5391 134.153C26.1754 134.153 26.7195 134.331 27.1712 134.686C27.6257 135.038 27.9723 135.55 28.2109 136.22C28.4524 136.888 28.5732 137.693 28.5732 138.636C28.5732 139.585 28.4538 140.395 28.2152 141.065C27.9766 141.733 27.6314 142.243 27.1797 142.595C26.728 142.945 26.1811 143.119 25.5391 143.119ZM25.5391 142.182C26.1754 142.182 26.6697 141.875 27.022 141.261C27.3743 140.648 27.5504 139.773 27.5504 138.636C27.5504 137.881 27.4695 137.237 27.3075 136.706C27.1484 136.175 26.9183 135.77 26.6172 135.491C26.3189 135.213 25.9595 135.074 25.5391 135.074C24.9084 135.074 24.4155 135.385 24.0604 136.007C23.7053 136.626 23.5277 137.503 23.5277 138.636C23.5277 139.392 23.6072 140.034 23.7663 140.562C23.9254 141.091 24.1541 141.493 24.4524 141.768C24.7536 142.044 25.1158 142.182 25.5391 142.182ZM33.0391 143.119C32.397 143.119 31.8501 142.945 31.3984 142.595C30.9467 142.243 30.6016 141.733 30.3629 141.065C30.1243 140.395 30.005 139.585 30.005 138.636C30.005 137.693 30.1243 136.888 30.3629 136.22C30.6044 135.55 30.951 135.038 31.4027 134.686C31.8572 134.331 32.4027 134.153 33.0391 134.153C33.6754 134.153 34.2195 134.331 34.6712 134.686C35.1257 135.038 35.4723 135.55 35.7109 136.22C35.9524 136.888 36.0732 137.693 36.0732 138.636C36.0732 139.585 35.9538 140.395 35.7152 141.065C35.4766 141.733 35.1314 142.243 34.6797 142.595C34.228 142.945 33.6811 143.119 33.0391 143.119ZM33.0391 142.182C33.6754 142.182 34.1697 141.875 34.522 141.261C34.8743 140.648 35.0504 139.773 35.0504 138.636C35.0504 137.881 34.9695 137.237 34.8075 136.706C34.6484 136.175 34.4183 135.77 34.1172 135.491C33.8189 135.213 33.4595 135.074 33.0391 135.074C32.4084 135.074 31.9155 135.385 31.5604 136.007C31.2053 136.626 31.0277 137.503 31.0277 138.636C31.0277 139.392 31.1072 140.034 31.2663 140.562C31.4254 141.091 31.6541 141.493 31.9524 141.768C32.2536 142.044 32.6158 142.182 33.0391 142.182ZM7.73029 188.119C7.23029 188.119 6.78001 188.02 6.37944 187.821C5.97887 187.622 5.65785 187.349 5.41637 187.003C5.17489 186.656 5.04279 186.261 5.02006 185.818H6.04279C6.08256 186.213 6.26154 186.54 6.57972 186.798C6.90075 187.054 7.28427 187.182 7.73029 187.182C8.08825 187.182 8.40643 187.098 8.68484 186.93C8.96609 186.763 9.18626 186.533 9.34535 186.24C9.50728 185.945 9.58825 185.611 9.58825 185.239C9.58825 184.858 9.50444 184.518 9.33683 184.22C9.17205 183.919 8.94478 183.682 8.65501 183.509C8.36523 183.335 8.03427 183.247 7.66211 183.244C7.39506 183.241 7.12092 183.283 6.83967 183.368C6.55842 183.45 6.32688 183.557 6.14506 183.688L5.15643 183.568L5.68484 179.273H10.2189V180.21H6.5712L6.26438 182.784H6.31552C6.4945 182.642 6.71893 182.524 6.98881 182.43C7.2587 182.337 7.53995 182.29 7.83256 182.29C8.36665 182.29 8.84251 182.418 9.26012 182.673C9.68058 182.926 10.0101 183.273 10.2488 183.713C10.4902 184.153 10.611 184.656 10.611 185.222C10.611 185.778 10.486 186.276 10.236 186.713C9.98881 187.148 9.6479 187.491 9.21325 187.744C8.77859 187.994 8.28427 188.119 7.73029 188.119ZM15.1504 188.119C14.5083 188.119 13.9615 187.945 13.5098 187.595C13.0581 187.243 12.7129 186.733 12.4743 186.065C12.2356 185.395 12.1163 184.585 12.1163 183.636C12.1163 182.693 12.2356 181.888 12.4743 181.22C12.7157 180.55 13.0623 180.038 13.514 179.686C13.9686 179.331 14.514 179.153 15.1504 179.153C15.7868 179.153 16.3308 179.331 16.7825 179.686C17.237 180.038 17.5836 180.55 17.8223 181.22C18.0637 181.888 18.1845 182.693 18.1845 183.636C18.1845 184.585 18.0652 185.395 17.8265 186.065C17.5879 186.733 17.2427 187.243 16.791 187.595C16.3393 187.945 15.7924 188.119 15.1504 188.119ZM15.1504 187.182C15.7868 187.182 16.2811 186.875 16.6333 186.261C16.9856 185.648 17.1618 184.773 17.1618 183.636C17.1618 182.881 17.0808 182.237 16.9189 181.706C16.7598 181.175 16.5297 180.77 16.2285 180.491C15.9302 180.213 15.5708 180.074 15.1504 180.074C14.5197 180.074 14.0268 180.385 13.6717 181.007C13.3166 181.626 13.139 182.503 13.139 183.636C13.139 184.392 13.2186 185.034 13.3777 185.562C13.5368 186.091 13.7654 186.493 14.0637 186.768C14.3649 187.044 14.7271 187.182 15.1504 187.182ZM22.6504 188.119C22.0083 188.119 21.4615 187.945 21.0098 187.595C20.5581 187.243 20.2129 186.733 19.9743 186.065C19.7356 185.395 19.6163 184.585 19.6163 183.636C19.6163 182.693 19.7356 181.888 19.9743 181.22C20.2157 180.55 20.5623 180.038 21.014 179.686C21.4686 179.331 22.014 179.153 22.6504 179.153C23.2868 179.153 23.8308 179.331 24.2825 179.686C24.737 180.038 25.0836 180.55 25.3223 181.22C25.5637 181.888 25.6845 182.693 25.6845 183.636C25.6845 184.585 25.5652 185.395 25.3265 186.065C25.0879 186.733 24.7427 187.243 24.291 187.595C23.8393 187.945 23.2924 188.119 22.6504 188.119ZM22.6504 187.182C23.2868 187.182 23.7811 186.875 24.1333 186.261C24.4856 185.648 24.6618 184.773 24.6618 183.636C24.6618 182.881 24.5808 182.237 24.4189 181.706C24.2598 181.175 24.0297 180.77 23.7285 180.491C23.4302 180.213 23.0708 180.074 22.6504 180.074C22.0197 180.074 21.5268 180.385 21.1717 181.007C20.8166 181.626 20.639 182.503 20.639 183.636C20.639 184.392 20.7186 185.034 20.8777 185.562C21.0368 186.091 21.2654 186.493 21.5637 186.768C21.8649 187.044 22.2271 187.182 22.6504 187.182ZM30.1504 188.119C29.5083 188.119 28.9615 187.945 28.5098 187.595C28.0581 187.243 27.7129 186.733 27.4743 186.065C27.2356 185.395 27.1163 184.585 27.1163 183.636C27.1163 182.693 27.2356 181.888 27.4743 181.22C27.7157 180.55 28.0623 180.038 28.514 179.686C28.9686 179.331 29.514 179.153 30.1504 179.153C30.7868 179.153 31.3308 179.331 31.7825 179.686C32.237 180.038 32.5836 180.55 32.8223 181.22C33.0637 181.888 33.1845 182.693 33.1845 183.636C33.1845 184.585 33.0652 185.395 32.8265 186.065C32.5879 186.733 32.2427 187.243 31.791 187.595C31.3393 187.945 30.7924 188.119 30.1504 188.119ZM30.1504 187.182C30.7868 187.182 31.2811 186.875 31.6333 186.261C31.9856 185.648 32.1618 184.773 32.1618 183.636C32.1618 182.881 32.0808 182.237 31.9189 181.706C31.7598 181.175 31.5297 180.77 31.2285 180.491C30.9302 180.213 30.5708 180.074 30.1504 180.074C29.5197 180.074 29.0268 180.385 28.6717 181.007C28.3166 181.626 28.139 182.503 28.139 183.636C28.139 184.392 28.2186 185.034 28.3777 185.562C28.5368 186.091 28.7654 186.493 29.0637 186.768C29.3649 187.044 29.7271 187.182 30.1504 187.182ZM19 233.119C18.358 233.119 17.8111 232.945 17.3594 232.595C16.9077 232.243 16.5625 231.733 16.3239 231.065C16.0852 230.395 15.9659 229.585 15.9659 228.636C15.9659 227.693 16.0852 226.888 16.3239 226.22C16.5653 225.55 16.9119 225.038 17.3636 224.686C17.8182 224.331 18.3636 224.153 19 224.153C19.6364 224.153 20.1804 224.331 20.6321 224.686C21.0866 225.038 21.4332 225.55 21.6719 226.22C21.9134 226.888 22.0341 227.693 22.0341 228.636C22.0341 229.585 21.9148 230.395 21.6761 231.065C21.4375 231.733 21.0923 232.243 20.6406 232.595C20.1889 232.945 19.642 233.119 19 233.119ZM19 232.182C19.6364 232.182 20.1307 231.875 20.483 231.261C20.8352 230.648 21.0114 229.773 21.0114 228.636C21.0114 227.881 20.9304 227.237 20.7685 226.706C20.6094 226.175 20.3793 225.77 20.0781 225.491C19.7798 225.213 19.4205 225.074 19 225.074C18.3693 225.074 17.8764 225.385 17.5213 226.007C17.1662 226.626 16.9886 227.503 16.9886 228.636C16.9886 229.392 17.0682 230.034 17.2273 230.562C17.3864 231.091 17.6151 231.493 17.9134 231.768C18.2145 232.044 18.5767 232.182 19 232.182Z" fill="#DCDCDC"/>
</svg>
